<?xml version="1.0" standalone="no"?>
<!DOCTYPE svg PUBLIC "-//W3C//DTD SVG 20010904//EN"
 "http://www.w3.org/TR/2001/REC-SVG-20010904/DTD/svg10.dtd">
<svg version="1.0" xmlns="http://www.w3.org/2000/svg"
 width="591.000000pt" height="591.000000pt" viewBox="0 0 591.000000 591.000000"
 preserveAspectRatio="xMidYMid meet">
<metadata>
Created by potrace 1.11, written by Peter Selinger 2001-2013
</metadata>
<g transform="translate(0.000000,591.000000) scale(0.100000,-0.100000)"
fill="#000000" stroke="none">
<path d="M942 4943 c-71 -271 -95 -450 -95 -703 0 -268 30 -439 110 -627 l35
-82 -19 -78 c-24 -106 -25 -371 0 -495 16 -82 16 -91 0 -185 -13 -75 -17 -156
-18 -348 0 -225 2 -259 22 -337 31 -122 63 -194 128 -295 92 -141 121 -174
172 -198 59 -28 104 -75 135 -140 18 -40 39 -61 101 -106 43 -30 102 -68 132
-84 l53 -29 58 39 c32 22 146 125 254 229 271 263 362 328 507 362 119 28 239
5 383 -72 l67 -37 59 36 c99 61 165 80 279 80 84 1 113 -4 179 -27 171 -59
309 -165 487 -375 30 -36 87 -91 127 -123 l74 -58 56 31 c372 209 590 565 651
1064 7 50 16 164 21 255 5 91 16 212 25 270 24 152 16 340 -19 489 l-27 115
20 150 c34 252 43 344 50 516 18 462 -40 719 -173 770 -26 9 -36 6 -105 -37
-331 -204 -685 -464 -894 -655 l-87 -80 -143 26 c-437 78 -771 56 -1127 -73
-47 -17 -91 -29 -98 -26 -7 2 -135 94 -285 203 -412 300 -1049 752 -1060 752
-2 0 -18 -53 -35 -117z m228 -94 c161 -87 408 -265 630 -456 140 -121 330
-315 330 -337 -1 -26 -96 -160 -263 -370 -277 -345 -493 -576 -539 -576 -61 0
-191 123 -250 236 -46 89 -38 95 101 87 95 -5 117 -3 182 17 l74 23 -73 13
c-41 7 -110 25 -154 40 -78 28 -82 30 -129 97 -153 219 -203 584 -134 982 16
90 63 293 72 307 5 10 57 -12 153 -63z m3619 -37 c38 -61 76 -175 97 -293 19
-109 14 -299 -11 -414 -35 -162 -116 -353 -204 -484 -23 -33 -41 -64 -41 -69
0 -5 27 -19 59 -32 33 -12 69 -31 80 -41 21 -20 21 -21 4 -51 -29 -49 -134
-158 -196 -205 -68 -49 -145 -76 -195 -67 -96 18 -302 292 -510 679 -103 191
-137 274 -128 310 10 38 102 132 215 219 191 146 762 509 787 499 7 -2 26 -26
43 -51z m-972 -2022 c23 -10 63 -39 88 -64 50 -51 54 -71 34 -168 -29 -135
-117 -215 -255 -232 -61 -8 -194 14 -258 42 -53 24 -55 33 -31 125 61 234 257
372 422 297z m-1512 -18 c82 -41 161 -149 206 -281 30 -85 29 -86 -63 -122
-105 -41 -224 -51 -293 -25 -89 34 -159 144 -180 283 -11 70 30 123 122 158
52 20 157 14 208 -13z"/>
<path d="M3608 2761 c-96 -31 -152 -145 -117 -238 13 -34 55 -80 91 -99 15 -8
50 -14 78 -14 57 0 93 15 132 57 99 105 33 282 -112 298 -25 2 -57 0 -72 -4z
m112 -23 c-1 -50 -11 -58 -71 -58 -64 0 -76 14 -42 52 19 22 113 26 113 6z"/>
<path d="M2155 2746 c-101 -45 -134 -181 -63 -262 41 -46 77 -64 133 -64 79 0
144 51 165 130 10 39 2 99 -17 125 -5 6 -39 11 -78 13 -38 2 -73 6 -76 10 -3
4 -3 17 0 28 6 20 8 21 56 9 61 -16 71 -11 22 10 -44 18 -102 19 -142 1z"/>
<path d="M2880 1319 c-47 -28 -184 -100 -305 -160 -138 -68 -210 -109 -194
-109 14 0 61 -19 104 -41 302 -159 554 -189 806 -95 80 30 189 89 249 135 l24
19 -94 43 c-114 51 -316 155 -421 215 -42 24 -78 44 -80 44 -2 0 -42 -23 -89
-51z"/>
</g>
</svg>
